<svg width="24" height="24" viewBox="0 0 24 24" fill="none" xmlns="http://www.w3.org/2000/svg">
<path fill-rule="evenodd" clip-rule="evenodd" d="M23.0009 12.0005C23.0009 5.92508 18.0758 1 12.0005 1C5.92508 1 1 5.92508 1 12.0005C1 18.0284 5.84842 22.9239 11.8583 23C11.168 22.9912 10.4932 22.9184 9.83914 22.7881V14.4121H8.04508V11.4213H9.83914V9.62599C9.83914 7.18609 10.852 5.73544 13.73 5.73544H16.126V8.72647H14.6283C13.5079 8.72647 13.4338 9.14421 13.4338 9.9242L13.4298 11.4211H16.1427L15.8252 14.4116H13.4298V22.9086C13.0255 22.961 12.6188 22.9912 12.2113 22.9989C18.1894 22.8865 23.0009 18.0054 23.0009 12.0005Z" fill="#211A1E"/>
</svg>
