<svg width="66" height="41" viewBox="0 0 66 41" fill="none" xmlns="http://www.w3.org/2000/svg">
<rect width="66" height="41" rx="5" fill="white"/>
<path fill-rule="evenodd" clip-rule="evenodd" d="M56.8461 20.2895C56.8461 16.8379 55.2034 14.1143 52.0636 14.1143C48.9106 14.1143 47.0029 16.8379 47.0029 20.2626C47.0029 24.321 49.2551 26.3704 52.4875 26.3704C54.064 26.3704 55.2563 26.0064 56.1572 25.494V22.7974C55.2563 23.2558 54.223 23.539 52.9115 23.539C51.6264 23.539 50.4871 23.0806 50.3414 21.4895H56.8196C56.8196 21.3143 56.8461 20.6131 56.8461 20.2895ZM50.3016 19.0086C50.3016 17.485 51.2157 16.8513 52.0504 16.8513C52.8585 16.8513 53.7196 17.485 53.7196 19.0086H50.3016Z" fill="black"/>
<path fill-rule="evenodd" clip-rule="evenodd" d="M41.8894 14.1143C40.5911 14.1143 39.7565 14.7345 39.2928 15.1659L39.1206 14.33H36.2061V30.0513L39.518 29.3367L39.5313 25.521C40.0082 25.8716 40.7103 26.3704 41.8761 26.3704C44.2475 26.3704 46.4069 24.4289 46.4069 20.1547C46.3937 16.2446 44.2078 14.1143 41.8894 14.1143ZM41.0945 23.4041C40.3129 23.4041 39.8492 23.121 39.5313 22.7704L39.518 17.7682C39.8625 17.3772 40.3394 17.1075 41.0945 17.1075C42.3001 17.1075 43.1347 18.4828 43.1347 20.2491C43.1347 22.0558 42.3133 23.4041 41.0945 23.4041Z" fill="black"/>
<path fill-rule="evenodd" clip-rule="evenodd" d="M31.6484 13.3187L34.9737 12.5906V9.85352L31.6484 10.5681V13.3187Z" fill="black"/>
<path d="M34.9737 14.3438H31.6484V26.1415H34.9737V14.3438Z" fill="black"/>
<path fill-rule="evenodd" clip-rule="evenodd" d="M28.0852 15.3412L27.8733 14.3435H25.0117V26.1412H28.3237V18.1457C29.1053 17.1075 30.4301 17.2963 30.8408 17.4446V14.3435C30.4168 14.1817 28.8668 13.885 28.0852 15.3412Z" fill="black"/>
<path fill-rule="evenodd" clip-rule="evenodd" d="M21.4611 11.418L18.2286 12.1191L18.2153 22.9191C18.2153 24.9146 19.6858 26.3843 21.6465 26.3843C22.7329 26.3843 23.5277 26.182 23.9649 25.9393V23.2022C23.541 23.3775 21.4478 23.9977 21.4478 22.0022V17.2157H23.9649V14.3438H21.4478L21.4611 11.418Z" fill="black"/>
<path fill-rule="evenodd" clip-rule="evenodd" d="M12.5055 17.7682C12.5055 17.2423 12.9294 17.0401 13.6316 17.0401C14.6384 17.0401 15.9102 17.3502 16.9171 17.903V14.7345C15.8175 14.2895 14.7312 14.1143 13.6316 14.1143C10.9423 14.1143 9.15381 15.5435 9.15381 17.93C9.15381 21.6513 14.188 21.0581 14.188 22.6626C14.188 23.2828 13.6581 23.485 12.9162 23.485C11.8166 23.485 10.4124 23.0266 9.29953 22.4064V25.6154C10.5316 26.1547 11.7769 26.3839 12.9162 26.3839C15.6718 26.3839 17.5662 24.9952 17.5662 22.5817C17.553 18.5637 12.5055 19.2783 12.5055 17.7682Z" fill="black"/>
</svg>
