<svg width="24" height="24" viewBox="0 0 24 24" fill="none" xmlns="http://www.w3.org/2000/svg">
<path d="M12.5317 20.5799L7.60784 20.4899C6.0136 20.4585 4.41539 20.5211 2.85241 20.196C0.474754 19.7103 0.306312 17.3287 0.130056 15.3309C-0.112807 12.5224 -0.0187875 9.66286 0.439526 6.87775C0.69826 5.31501 1.71648 4.38251 3.29112 4.28104C8.6067 3.91278 13.9576 3.95642 19.2614 4.12823C19.8216 4.14398 20.3856 4.23006 20.9379 4.32805C23.6643 4.80596 23.7308 7.50487 23.9076 9.77684C24.0838 12.0723 24.0094 14.3795 23.6725 16.6592C23.4022 18.5468 22.8851 20.1298 20.7028 20.2826C17.9686 20.4824 15.2971 20.6433 12.5552 20.5921C12.5553 20.5799 12.5395 20.5799 12.5317 20.5799ZM9.63694 15.801C11.6974 14.618 13.7186 13.4547 15.7673 12.2795C13.703 11.0965 11.6857 9.93314 9.63694 8.75802V15.801Z" fill="#211A1E"/>
</svg>
