<svg width="66" height="41" viewBox="0 0 66 41" fill="none" xmlns="http://www.w3.org/2000/svg">
<rect width="66" height="41" rx="5" fill="white"/>
<path d="M18.5166 33.2716H17.9233V30.5044H18.505V30.8416C18.505 30.8416 19.0159 30.4295 19.3193 30.4346C19.9093 30.4446 20.2616 30.9462 20.2616 30.9462C20.2616 30.9462 20.5474 30.4346 21.1923 30.4346C22.1459 30.4346 22.2858 31.3066 22.2858 31.3066V33.26H21.7158V31.5392C21.7158 31.5392 21.7178 31.016 21.0992 31.016C20.4595 31.016 20.4012 31.5392 20.4012 31.5392V33.26H19.8079V31.5275C19.8079 31.5275 19.7509 30.9811 19.2146 30.9811C18.5181 30.9811 18.505 31.5392 18.505 31.5392L18.5166 33.2716Z" fill="black"/>
<path d="M36.5592 30.4346C36.2557 30.4295 35.7449 30.8415 35.7449 30.8415V30.5051H35.1626V33.2717H35.7562L35.7449 31.5394C35.7449 31.5394 35.758 30.9825 36.4545 30.9825C36.5839 30.9825 36.6843 31.0138 36.7639 31.062V31.0598L36.9572 30.521C36.8405 30.4719 36.7079 30.4371 36.5592 30.4346Z" fill="black"/>
<path d="M44.9171 30.4346C44.6136 30.4295 44.1028 30.8415 44.1028 30.8415V30.5051H43.5205V33.2717H44.1142L44.1028 31.5394C44.1028 31.5394 44.1159 30.9825 44.8124 30.9825C44.9418 30.9825 45.0423 31.0138 45.1218 31.062V31.0598L45.3151 30.521C45.1984 30.4719 45.0658 30.4371 44.9171 30.4346Z" fill="black"/>
<path d="M24.2044 30.4229C23.3165 30.4229 22.8466 31.2205 22.8442 31.8868C22.8418 32.5699 23.3792 33.3577 24.2294 33.3577C24.7255 33.3577 25.133 32.9917 25.133 32.9917L25.1319 33.2735H25.7159V30.5036H25.1298V30.8525C25.1298 30.8525 24.7471 30.4229 24.2044 30.4229ZM24.3181 30.9866C24.7952 30.9866 25.1825 31.4014 25.1825 31.9119C25.1825 32.4223 24.7952 32.8348 24.3181 32.8348C23.8411 32.8348 23.4561 32.4223 23.4561 31.9119C23.4561 31.4014 23.8411 30.9866 24.3181 30.9866Z" fill="black"/>
<path d="M41.2357 30.4229C40.3478 30.4229 39.8779 31.2205 39.8755 31.8868C39.8731 32.5699 40.4104 33.3577 41.2607 33.3577C41.7567 33.3577 42.1642 32.9917 42.1642 32.9917L42.1631 33.2735H42.7471V30.5036H42.1611V30.8525C42.1611 30.8525 41.7784 30.4229 41.2357 30.4229ZM41.3494 30.9866C41.8264 30.9866 42.2137 31.4014 42.2137 31.9119C42.2137 32.4223 41.8264 32.8348 41.3494 32.8348C40.8723 32.8348 40.4873 32.4223 40.4873 31.9119C40.4873 31.4014 40.8723 30.9866 41.3494 30.9866Z" fill="black"/>
<path d="M46.8426 30.4229C45.9547 30.4229 45.4848 31.2205 45.4824 31.8869C45.48 32.5699 46.0174 33.3577 46.8676 33.3577C47.3637 33.3577 47.7711 32.9917 47.7711 32.9917L47.7701 33.2736H48.3541V29.4102H47.768V30.8525C47.768 30.8525 47.3853 30.4229 46.8426 30.4229ZM46.9563 30.9866C47.4334 30.9866 47.8206 31.4014 47.8206 31.9119C47.8206 32.4224 47.4334 32.8348 46.9563 32.8348C46.4793 32.8348 46.0943 32.4224 46.0943 31.9119C46.0943 31.4014 46.4793 30.9866 46.9563 30.9866Z" fill="black"/>
<path d="M27.4973 33.3645C26.8924 33.3645 26.334 32.9924 26.334 32.9924L26.5899 32.5971C26.5899 32.5971 27.1183 32.8412 27.4973 32.8412C27.7436 32.8412 28.1554 32.7618 28.1604 32.5157C28.1657 32.2556 27.4682 32.1785 27.4682 32.1785C27.4682 32.1785 26.4271 32.1643 26.4271 31.3065C26.4271 30.767 26.947 30.4229 27.6136 30.4229C27.9988 30.4229 28.7188 30.76 28.7188 30.76L28.428 31.2135C28.428 31.2135 27.8721 30.9915 27.5787 30.9809C27.3311 30.972 27.032 31.0905 27.032 31.3065C27.032 31.8932 28.7653 31.2608 28.7653 32.4459C28.7653 33.2235 28.0594 33.3645 27.4973 33.3645Z" fill="black"/>
<path d="M29.7287 29.7021V30.5069H29.2124V31.0889H29.7287V32.4801C29.7287 32.4801 29.683 33.4212 30.6954 33.4212C30.9753 33.4212 31.5233 33.2144 31.5233 33.2144L31.289 32.6097C31.289 32.6097 31.0711 32.7955 30.825 32.7893C30.3572 32.7775 30.3701 32.4778 30.3701 32.4778V31.0889H31.3345V30.5069H30.3701V29.7021H29.7287Z" fill="black"/>
<path d="M33.2432 30.457C32.2911 30.457 31.8155 31.2408 31.8194 31.921C31.8234 32.6206 32.2525 33.4078 33.3001 33.4078C33.7484 33.4078 34.3782 33.0145 34.3782 33.0145L34.1075 32.5439C34.1075 32.5439 33.6778 32.8485 33.3001 32.8485C32.5438 32.8485 32.4949 32.1097 32.4949 32.1097H34.5192C34.5192 32.1097 34.6702 30.457 33.2432 30.457ZM33.1568 31.0003C33.1792 30.9991 33.2033 31.0003 33.2273 31.0003C33.9397 31.0003 33.9347 31.6732 33.9347 31.6732H32.4949C32.4949 31.6732 32.4608 31.0399 33.1568 31.0003Z" fill="black"/>
<path d="M39.2652 32.5365L39.5366 33.0791C39.5366 33.0791 39.1064 33.3586 38.6235 33.3586C37.6239 33.3586 37.0688 32.6067 37.0688 31.8952C37.0688 30.777 37.9522 30.4482 38.5495 30.4482C39.0917 30.4482 39.5613 30.7607 39.5613 30.7607L39.2569 31.3033C39.2569 31.3033 39.0724 31.0155 38.5331 31.0155C37.9946 31.0155 37.7105 31.4795 37.7105 31.9199C37.7105 32.4134 38.0412 32.8325 38.5413 32.8325C38.9336 32.8325 39.2652 32.5365 39.2652 32.5365Z" fill="black"/>
<path d="M49.5758 32.8916C49.4936 32.8936 49.4259 32.9209 49.3727 32.9733C49.3195 33.0258 49.2919 33.0915 49.29 33.1704C49.2919 33.2487 49.3195 33.3142 49.3727 33.3669C49.4259 33.4197 49.4936 33.4471 49.5758 33.4492C49.6561 33.4471 49.723 33.4197 49.7764 33.3669C49.8298 33.3142 49.8575 33.2487 49.8595 33.1704C49.8575 33.0915 49.8299 33.0258 49.7766 32.9733C49.7234 32.9209 49.6564 32.8936 49.5758 32.8916ZM49.5758 33.3877C49.5132 33.3861 49.4615 33.365 49.4209 33.3241C49.3802 33.2833 49.3592 33.2321 49.3577 33.1704C49.3592 33.1084 49.3802 33.0572 49.4209 33.0167C49.4615 32.9762 49.5132 32.9552 49.5758 32.9538C49.6371 32.9552 49.688 32.9762 49.7284 33.0167C49.7687 33.0572 49.7897 33.1084 49.7912 33.1704C49.7897 33.2321 49.7687 33.2833 49.7284 33.3241C49.688 33.365 49.6371 33.3861 49.5758 33.3877ZM49.5922 33.0399H49.4726V33.2988H49.528V33.2018H49.5532L49.6319 33.2988H49.6982L49.6134 33.2011C49.6399 33.1978 49.6603 33.1892 49.6745 33.1754C49.6888 33.1616 49.696 33.144 49.6961 33.1226C49.6959 33.097 49.6869 33.0769 49.669 33.0623C49.6512 33.0476 49.6256 33.0402 49.5922 33.0399ZM49.5915 33.0884C49.6064 33.0884 49.618 33.0913 49.6265 33.097C49.6349 33.1028 49.6392 33.1113 49.6394 33.1226C49.6392 33.1342 49.6349 33.1429 49.6265 33.1487C49.618 33.1545 49.6064 33.1574 49.5915 33.1574H49.528V33.0884L49.5915 33.0884Z" fill="black"/>
<path fill-rule="evenodd" clip-rule="evenodd" d="M50.0049 17.4695C50.0049 23.2516 45.3239 27.9389 39.5496 27.9389C33.7753 27.9389 29.0942 23.2516 29.0942 17.4695C29.0942 11.6873 33.7753 7 39.5496 7C45.3239 7 50.0049 11.6873 50.0049 17.4695Z" fill="#F79F1A"/>
<path fill-rule="evenodd" clip-rule="evenodd" d="M37.106 17.4695C37.106 23.2516 32.425 27.9389 26.6507 27.9389C20.8763 27.9389 16.1953 23.2516 16.1953 17.4695C16.1953 11.6873 20.8763 7 26.6507 7C32.425 7 37.106 11.6873 37.106 17.4695Z" fill="#EA001B"/>
<path fill-rule="evenodd" clip-rule="evenodd" d="M33.0997 9.22754C30.6602 11.1442 29.0942 14.1225 29.0942 17.4682C29.0942 20.8139 30.6602 23.7945 33.0997 25.7111C35.5392 23.7945 37.1051 20.8139 37.1051 17.4682C37.1051 14.1225 35.5392 11.1442 33.0997 9.22754Z" fill="#FF5F01"/>
<path d="M49.98 23.025V22.6514H49.8824L49.7701 22.9083L49.6578 22.6514H49.5602V23.025H49.6291V22.7432L49.7344 22.9861H49.8058L49.9111 22.7426V23.025H49.98ZM49.3618 23.025V22.7151H49.4868V22.652H49.1685V22.7151H49.2935V23.025H49.3618Z" fill="#F79F1A"/>
</svg>
