<svg width="66" height="41" viewBox="0 0 66 41" fill="none" xmlns="http://www.w3.org/2000/svg">
<rect width="66" height="41" rx="5" fill="white"/>
<path d="M16.8668 12.8363C16.2339 13.5794 15.2213 14.1656 14.2087 14.0818C14.0821 13.0771 14.5779 12.0095 15.158 11.3501C15.7909 10.5861 16.8985 10.0419 17.7951 10C17.9005 11.0466 17.4892 12.0723 16.8668 12.8363ZM17.7845 14.2807C16.3183 14.197 15.0631 15.1075 14.3669 15.1075C13.6602 15.1075 12.5948 14.3225 11.4346 14.3435C9.92618 14.3644 8.52329 15.2122 7.75328 16.5623C6.17106 19.2626 7.3419 23.2607 8.87137 25.4586C9.62029 26.5471 10.5169 27.7402 11.6983 27.6984C12.8164 27.6565 13.2594 26.9762 14.6095 26.9762C15.9702 26.9762 16.3605 27.6984 17.5419 27.6774C18.7655 27.6565 19.5355 26.589 20.2844 25.5005C21.1388 24.2655 21.4869 23.0618 21.508 22.999C21.4869 22.9781 19.1452 22.0885 19.1241 19.4091C19.103 17.1694 20.97 16.1018 21.0544 16.039C19.9996 14.49 18.3541 14.3226 17.7845 14.2807ZM26.2546 11.2455V27.5623H28.8073V21.9838H32.3409C35.5686 21.9838 37.8364 19.7859 37.8364 16.6042C37.8364 13.4225 35.6108 11.2455 32.4252 11.2455H26.2546ZM28.8073 13.3806H31.7502C33.9653 13.3806 35.231 14.5528 35.231 16.6147C35.231 18.6765 33.9653 19.8592 31.7396 19.8592H28.8073V13.3806ZM42.4987 27.6879C44.102 27.6879 45.5892 26.882 46.2643 25.6051H46.3171V27.5623H48.6798V19.4405C48.6798 17.0856 46.7812 15.568 43.8594 15.568C41.1485 15.568 39.1444 17.1066 39.0705 19.2207H41.37C41.5599 18.216 42.4987 17.5566 43.7855 17.5566C45.3466 17.5566 46.2221 18.2788 46.2221 19.608V20.5081L43.0366 20.6965C40.0726 20.8744 38.4693 22.078 38.4693 24.1713C38.4693 26.2854 40.1253 27.6879 42.4987 27.6879ZM43.1843 25.7517C41.8236 25.7517 40.9586 25.1028 40.9586 24.1085C40.9586 23.0828 41.7919 22.4862 43.3847 22.392L46.2221 22.2141V23.1351C46.2221 24.6632 44.9142 25.7517 43.1843 25.7517ZM51.8337 32C54.3231 32 55.4939 31.058 56.5171 28.2008L61 15.725H58.4052L55.399 25.3644H55.3462L52.34 15.725H49.6714L53.9961 27.6042L53.764 28.3264C53.3737 29.5509 52.7409 30.0219 51.6122 30.0219C51.4118 30.0219 51.0215 30.001 50.8633 29.98V31.9372C51.011 31.9791 51.6439 32 51.8337 32Z" fill="black"/>
</svg>
