<svg width="66" height="41" viewBox="0 0 66 41" fill="none" xmlns="http://www.w3.org/2000/svg">
<rect width="66" height="41" rx="5" fill="white"/>
<path d="M49.682 16.181C48.2852 16.181 47.1804 16.5517 46.3357 16.7205L46.0753 18.8439C46.498 18.6415 47.8299 18.2711 48.935 18.2371C50.0397 18.2033 50.6894 18.4391 50.4623 19.3831C47.1804 19.3831 44.9705 20.057 44.5157 22.1808C43.8653 25.8213 47.8631 25.72 49.4549 24.1358L49.2597 25.0124H52.1841L53.4519 19.2147C53.9712 16.7537 51.7291 16.1474 49.682 16.181ZM49.877 22.1132C49.7145 22.8881 49.0975 23.2258 48.3502 23.2599C47.7005 23.293 47.1151 22.7197 47.5378 22.046C47.8633 21.4732 48.7729 21.3381 49.3253 21.3381C49.5523 21.3381 49.8135 21.3381 50.0402 21.3381C49.9745 21.6078 49.9413 21.8441 49.877 22.1132Z" fill="#01A5DB"/>
<path d="M55.9537 13.8877L53.5342 25.0115H56.505L58.9542 13.8877H55.9537Z" fill="#01A5DB"/>
<path d="M42.3051 13.9219H36.8666L34.4565 25.0115H37.6155L38.4299 21.3374H40.6774C42.8916 21.3374 44.7156 19.9892 45.2043 17.697C45.7572 15.1017 43.8684 13.9219 42.3051 13.9219ZM42.208 17.697C42.012 18.5397 41.1652 19.2138 40.3507 19.2138H38.8855L39.5371 16.1803H41.1001C41.9149 16.1803 42.4032 16.8544 42.208 17.697Z" fill="#01A5DB"/>
<path d="M21.2002 16.181C19.82 16.181 18.7283 16.5517 17.9259 16.7205L17.6693 18.8439C18.0544 18.6415 19.3709 18.2711 20.4617 18.2371C21.5533 18.2033 22.1954 18.4391 22.0025 19.3831C18.7608 19.3831 16.5781 20.057 16.1286 22.1808C15.4864 25.8213 19.4345 25.72 20.9751 24.1358L20.7828 25.0124H23.7039L24.9556 19.2147C25.4692 16.7537 23.222 16.1474 21.2002 16.181ZM21.4246 22.1132C21.2642 22.8881 20.6221 23.2258 19.8839 23.2599C19.2417 23.293 18.6963 22.7197 19.1135 22.046C19.4344 21.4732 20.3331 21.3381 20.8468 21.3381C21.1037 21.3381 21.3281 21.3381 21.5851 21.3381C21.5211 21.6078 21.4568 21.8441 21.4246 22.1132Z" fill="#005BAC"/>
<path d="M26.2282 16.3398H29.1489L29.6202 21.5046L32.4781 16.3398H35.4922L28.5523 28.7002H25.2861L27.4211 25.0662L26.2282 16.3398Z" fill="#005BAC"/>
<path d="M13.9353 13.9219H8.48252L6.06641 25.0115H9.2666L10.05 21.3374H12.3353C14.5229 21.3374 16.3517 19.9892 16.8412 17.697C17.396 15.1017 15.5351 13.9219 13.9353 13.9219ZM13.8373 17.697C13.6414 18.5397 12.8252 19.2138 12.0089 19.2138H10.5069L11.1927 16.1803H12.7598C13.5438 16.1803 14.0659 16.8544 13.8373 17.697Z" fill="#005BAC"/>
<path d="M59.5952 15.3258V14.0145H59.106V13.8389H60.2847V14.0145H59.7929V15.3258H59.5952Z" fill="#1B557D"/>
<path d="M60.48 15.3258V13.8389H60.7744L61.1274 14.8913C61.1599 14.9893 61.1836 15.0626 61.1985 15.1113C61.2156 15.0573 61.2422 14.9779 61.2777 14.8731L61.6347 13.8389H61.8994V15.3258H61.7102V14.081L61.2761 15.3258H61.099L60.6692 14.0606V15.3258H60.48Z" fill="#1B557D"/>
</svg>
