<svg width="24" height="24" viewBox="0 0 24 24" fill="none" xmlns="http://www.w3.org/2000/svg">
<path d="M7.91878 20.8862C16.221 20.8862 20.7613 14.0055 20.7613 8.03889C20.7613 7.84349 20.7573 7.64898 20.7485 7.45527C21.6319 6.8158 22.3943 6.02404 23 5.1171C22.1912 5.47679 21.3209 5.71888 20.4079 5.82803C21.3398 5.26904 22.0553 4.3847 22.3928 3.33058C21.5068 3.85639 20.5374 4.22705 19.5266 4.4266C18.703 3.54893 17.5304 3 16.2319 3C13.7393 3 11.718 5.02212 11.718 7.5147C11.718 7.86907 11.7576 8.21364 11.8351 8.54427C8.08369 8.35543 4.75722 6.55868 2.53097 3.82661C2.13 4.51569 1.9191 5.29885 1.9198 6.0961C1.9198 7.66266 2.71663 9.04557 3.92841 9.85465C3.21163 9.83276 2.51057 9.63907 1.8842 9.2899C1.88353 9.30886 1.88353 9.32733 1.88353 9.34758C1.88353 11.5343 3.43936 13.3601 5.50468 13.7738C5.11678 13.8795 4.71652 13.9329 4.31449 13.9327C4.02415 13.9327 3.74119 13.9041 3.46619 13.8513C4.04083 15.6454 5.70711 16.9509 7.68268 16.9874C6.1378 18.1987 4.19174 18.9202 2.07666 18.9202C1.71686 18.9205 1.35735 18.8996 1 18.8576C2.99762 20.1385 5.36959 20.8859 7.919 20.8859" fill="#211A1E"/>
</svg>
