<svg width="66" height="41" viewBox="0 0 66 41" fill="none" xmlns="http://www.w3.org/2000/svg">
<rect width="66" height="41" rx="5" fill="white"/>
<path fill-rule="evenodd" clip-rule="evenodd" d="M27.4687 10.702L24.6555 27.9915H29.1565L31.9701 10.702H27.4687ZM20.8684 10.702L16.577 22.5936L16.0694 20.0329L16.0697 20.0337L15.9579 19.4598C15.4385 18.3405 14.2356 16.2131 11.9642 14.3976C11.2927 13.861 10.6158 13.403 9.96143 13.0118L13.8617 27.9915H18.5514L25.7129 10.702H20.8684ZM38.4352 15.5019C38.4352 13.5472 42.8188 13.7984 44.745 14.8598L45.3873 11.1465C45.3873 11.1465 43.405 10.3926 41.3387 10.3926C39.1049 10.3926 33.8005 11.3695 33.8005 16.1161C33.8005 20.5833 40.0263 20.6388 40.0263 22.9842C40.0263 25.3295 34.4424 24.9104 32.5997 23.4309L31.9299 27.3122C31.9299 27.3122 33.9397 28.2891 37.0112 28.2891C40.0824 28.2891 44.717 26.698 44.717 22.37C44.717 17.8748 38.4352 17.4562 38.4352 15.5019ZM56.8027 10.702H53.1838C51.5127 10.702 51.1058 11.9905 51.1058 11.9905L44.3932 27.9915H49.0848L50.0233 25.4235H55.7455L56.2734 27.9915H60.4063L56.8027 10.702ZM51.3204 21.8755L53.6856 15.4054L55.0162 21.8755H51.3204Z" fill="#005BAC"/>
<path fill-rule="evenodd" clip-rule="evenodd" d="M14.6152 12.329C14.6152 12.329 14.4289 10.7686 12.4398 10.7686H5.21355L5.12891 11.0618C5.12891 11.0618 8.60243 11.7699 11.9348 14.4228C15.1194 16.9582 16.1583 20.1189 16.1583 20.1189L14.6152 12.329Z" fill="#F6AC1D"/>
</svg>
